<?xml version="1.0" encoding="UTF-8"?>
<svg width="147px" height="147px" viewBox="0 0 147 147" version="1.1" xmlns="http://www.w3.org/2000/svg" xmlns:xlink="http://www.w3.org/1999/xlink">
    <!-- Generator: Sketch 51.1 (57501) - http://www.bohemiancoding.com/sketch -->
    <title>IBM Aspera</title>
    <desc>Created with Sketch.</desc>
    <defs></defs>
    <g id="Page-1" stroke="none" stroke-width="1" fill="none" fill-rule="evenodd">
        <g id="IBM-Aspera" transform="translate(90.369318, 56.369318) rotate(-45.000000) translate(-90.369318, -56.369318) translate(15.869318, -26.630682)">
            <path d="M148.462784,79.4507735 C127.408151,65.1735521 101.979926,56.8292683 74.5968295,56.8292683 C47.330302,56.8292683 22.002038,65.1026604 1,79.2687627 L148.462784,79.4507735 Z" id="Oval-6-Copy-5" stroke="#7863EC" stroke-width="3" fill="#FFFFFF" stroke-linejoin="round"></path>
            <path d="M86.9381702,50.5283495 C82.8509208,50.1467365 78.7093112,49.9516189 74.5219901,49.9516189 C68.5630951,49.9516189 62.6967732,50.3467629 56.9479493,51.1122019 L31.9980592,0.173600168 L36.9366722,0.173600168 L86.9381702,50.5283495 Z" id="Oval-6-Copy-7" stroke="#7863EC" stroke-width="3" fill="#E9E8FE" stroke-linejoin="round"></path>
            <path d="M120.076491,96.9525525 C106.064001,88.9291608 90.5492125,84.917465 73.5321249,84.917465 C48.1151556,84.917465 22.8915111,96.419515 3.31409495,109.624694 C-9.73751582,118.428147 29.1832829,114.2041 120.076491,96.9525525 Z" id="Oval-6-Copy-5" fill="#E9E8FE" transform="translate(60.466195, 99.501960) scale(1, -1) translate(-60.466195, -99.501960) "></path>
            <path d="M148.462784,108.670732 C127.408151,94.3935103 101.979926,86.0492265 74.5968295,86.0492265 C47.330302,86.0492265 22.002038,94.3226186 1,108.488721 L148.462784,108.670732 Z" id="Oval-6-Copy-5" stroke="#7863EC" stroke-width="3" fill="#E9E8FE" stroke-linejoin="round" transform="translate(74.731392, 97.359979) scale(1, -1) translate(-74.731392, -97.359979) "></path>
            <path d="M86.9383428,164.740423 C82.8510934,164.35881 78.7094839,164.163693 74.5221628,164.163693 C68.5632678,164.163693 62.6969458,164.558837 56.948122,165.324276 L31.9982318,114.385674 L36.9368449,114.385674 L86.9383428,164.740423 Z" id="Oval-6-Copy-7" stroke="#7863EC" stroke-width="3" fill="#FFFFFF" stroke-linejoin="round" transform="translate(59.468287, 139.854975) scale(1, -1) translate(-59.468287, -139.854975) "></path>
        </g>
    </g>
</svg>