<svg id="Layer_1" data-name="Layer 1" xmlns="http://www.w3.org/2000/svg" viewBox="0 0 64 64"><title>Artboard 1</title><path d="M38.56,32.19l-3.27-1.74L33.46,27.1a1.84,1.84,0,0,0-3.23,0l-1.81,3.29-3.29,1.8a1.85,1.85,0,0,0,0,3.24l3.26,1.75,1.83,3.35a1.86,1.86,0,0,0,1.62,1,1.84,1.84,0,0,0,1.62-1l1.75-3.27,3.35-1.83a1.85,1.85,0,0,0,0-3.24Z" style="fill:#3d6c80"/><path d="M32.54,53.77h0a19.58,19.58,0,0,1-10.15-5.39,15.52,15.52,0,0,1,0-21.92,1.15,1.15,0,1,0-1.63-1.63,17.83,17.83,0,0,0,0,25.18A21.9,21.9,0,0,0,32.1,56l.22,0a1.15,1.15,0,0,0,1.13-.93A1.16,1.16,0,0,0,32.54,53.77Z" style="fill:#3d6c80"/><path d="M51.83,11.58a34.67,34.67,0,0,0-4.56-3.8,5.09,5.09,0,0,0,.25-2.7,5.21,5.21,0,0,0-6-4.21,5.19,5.19,0,0,0-4.2,6,5.12,5.12,0,0,0,2.14,3.35,5.2,5.2,0,0,0,3.89.86A5.11,5.11,0,0,0,46,9.72a30.6,30.6,0,0,1,4.19,3.5,24.88,24.88,0,0,1,0,35.16,19.56,19.56,0,0,1-6.89,4.47,1.1,1.1,0,0,0-.64.61,1.12,1.12,0,0,0,0,.88,1.16,1.16,0,0,0,1.08.74,1.14,1.14,0,0,0,.41-.07,22,22,0,0,0,7.71-5A27.21,27.21,0,0,0,51.83,11.58Z" style="fill:#3d6c80"/><path d="M43.45,42.87a17.83,17.83,0,0,0,0-25.18,22,22,0,0,0-26.3-3.62,1.16,1.16,0,0,0,.26,2.12,1.15,1.15,0,0,0,.87-.11,19.73,19.73,0,0,1,23.54,3.24,15.52,15.52,0,0,1,0,21.92,1.13,1.13,0,0,0-.34.81,1.15,1.15,0,0,0,.34.82,1.13,1.13,0,0,0,.81.34A1.15,1.15,0,0,0,43.45,42.87Z" style="fill:#3d6c80"/><path d="M19.67,53.71a5.1,5.1,0,0,0-3.88-.85,5,5,0,0,0-2.3,1,25,25,0,0,1-1.72-32,1.15,1.15,0,0,0-.22-1.62,1.16,1.16,0,0,0-1.61.22A27.32,27.32,0,0,0,12,55.73a5.19,5.19,0,0,0,4.66,7.45,4.7,4.7,0,0,0,.92-.09,5.2,5.2,0,0,0,4.21-6A5.2,5.2,0,0,0,19.67,53.71Z" style="fill:#3d6c80"/><path d="M34.15,35.48a1.64,1.64,0,0,0-.64.64l-1.67,3.05-1.67-3.05a1.62,1.62,0,0,0-.63-.64l-3.06-1.67,3.06-1.67a1.59,1.59,0,0,0,.63-.63l1.67-3.06,1.68,3.06a1.53,1.53,0,0,0,.63.63l3.05,1.67Z" style="fill:#95c6e0"/><path d="M43,9.07a3.14,3.14,0,0,1-3.12-4.88,3.16,3.16,0,0,1,2-1.29,3.51,3.51,0,0,1,.55,0A3.13,3.13,0,0,1,43,9.07Z" style="fill:#1edcc9"/><path d="M19.27,59.77a3.16,3.16,0,0,1-2,1.29,3.11,3.11,0,0,1-2.35-.51,3.16,3.16,0,0,1-1.29-2,3.1,3.1,0,0,1,.52-2.34,3.06,3.06,0,0,1,2-1.29,2.59,2.59,0,0,1,.56,0,3.14,3.14,0,0,1,3.08,2.59A3.14,3.14,0,0,1,19.27,59.77Z" style="fill:#1edcc9"/></svg>