<svg xmlns="http://www.w3.org/2000/svg" xmlns:xlink="http://www.w3.org/1999/xlink" id="Layer_1" x="0" y="0" version="1.1" viewBox="0 0 64 64" xml:space="preserve" style="enable-background:new 0 0 64 64"><style type="text/css">.st0{fill:#0062ff}.st1{fill:#c9deff}.st2{fill:#6ccaff}</style><g><g><path d="M38.6,32.2l-3.3-1.7l-1.8-3.4c-0.3-0.6-0.9-1-1.6-1c-0.7,0-1.3,0.4-1.6,1l-1.8,3.3l-3.3,1.8 c-0.6,0.3-1,0.9-1,1.6c0,0.7,0.4,1.3,1,1.6l3.3,1.7l1.8,3.3c0.3,0.6,0.9,1,1.6,1s1.3-0.4,1.6-1l1.7-3.3l3.4-1.8 c0.6-0.3,1-0.9,1-1.6C39.5,33.1,39.2,32.5,38.6,32.2z" class="st0"/><g><path d="M32.5,53.8L32.5,53.8c-3.9-0.7-7.4-2.6-10.1-5.4c-2.9-2.9-4.5-6.8-4.5-11c0-4.1,1.6-8,4.5-11 c0.2-0.2,0.3-0.5,0.3-0.8c0-0.3-0.1-0.6-0.3-0.8c-0.5-0.5-1.2-0.4-1.6,0c-6.9,6.9-6.9,18.2,0,25.2c3.1,3.1,7,5.2,11.3,6 c0.1,0,0.1,0,0.2,0c0.6,0,1-0.4,1.1-0.9C33.6,54.5,33.2,53.9,32.5,53.8z" class="st0"/><path d="M51.8,11.6c-1.4-1.4-2.9-2.6-4.6-3.8c0.3-0.9,0.4-1.8,0.3-2.7c-0.5-2.8-3.2-4.7-6-4.2 c-1.4,0.2-2.6,1-3.4,2.1c-0.8,1.1-1.1,2.5-0.9,3.9c0.2,1.4,1,2.6,2.1,3.4c1.1,0.8,2.5,1.1,3.9,0.9c1-0.2,1.9-0.7,2.7-1.4 c1.5,1.1,2.9,2.2,4.2,3.5c9.7,9.7,9.7,25.5,0,35.2c-2,2-4.3,3.5-6.9,4.5c-0.3,0.1-0.5,0.3-0.6,0.6c-0.1,0.3-0.1,0.6,0,0.9 c0.2,0.4,0.6,0.7,1.1,0.7c0.1,0,0.3,0,0.4-0.1c2.9-1.1,5.5-2.8,7.7-5C62.4,39.4,62.4,22.2,51.8,11.6z" class="st0"/><path d="M43.4,42.9c6.9-6.9,6.9-18.2,0-25.2c-6.9-6.9-17.8-8.4-26.3-3.6c-0.3,0.2-0.5,0.4-0.5,0.7 c-0.1,0.3,0,0.6,0.1,0.9c0.2,0.3,0.4,0.5,0.7,0.5c0.3,0.1,0.6,0,0.9-0.1c7.6-4.3,17.3-3,23.5,3.2c2.9,2.9,4.5,6.8,4.5,11 c0,4.1-1.6,8-4.5,11c-0.2,0.2-0.3,0.5-0.3,0.8c0,0.3,0.1,0.6,0.3,0.8c0.2,0.2,0.5,0.3,0.8,0.3S43.2,43.1,43.4,42.9z" class="st0"/><path d="M19.7,53.7c-1.1-0.8-2.5-1.1-3.9-0.9c-0.8,0.1-1.6,0.5-2.3,1c-8.2-8.8-9-22.5-1.7-32C12,21.6,12,21.3,12,21 c0-0.3-0.2-0.6-0.4-0.8c-0.5-0.4-1.2-0.3-1.6,0.2c-8,10.6-7.1,25.7,2.1,35.2c-0.5,1-0.6,2.1-0.5,3.2c0.2,1.4,1,2.6,2.1,3.4 c0.9,0.6,1.9,0.9,3,0.9c0.3,0,0.6,0,0.9-0.1c1.4-0.2,2.6-1,3.4-2.1c0.8-1.1,1.1-2.5,0.9-3.9C21.6,55.7,20.8,54.5,19.7,53.7z" class="st0"/></g></g><path d="M34.1,35.5c-0.3,0.1-0.5,0.4-0.6,0.6l-1.7,3.1l-1.7-3.1c-0.1-0.3-0.4-0.5-0.6-0.6l-3.1-1.7l3.1-1.7 c0.3-0.1,0.5-0.4,0.6-0.6l1.7-3.1l1.7,3.1c0.1,0.3,0.4,0.5,0.6,0.6l3.1,1.7L34.1,35.5z" class="st1"/><path d="M43,9.1c-0.8,0.1-1.7,0-2.3-0.5c-0.7-0.5-1.1-1.2-1.3-2c-0.1-0.8,0-1.7,0.5-2.3c0.5-0.7,1.2-1.1,2-1.3 c0.2,0,0.4,0,0.5,0c1.5,0,2.8,1.1,3.1,2.6C45.8,7.1,44.7,8.8,43,9.1z" class="st2"/><path d="M19.3,59.8c-0.5,0.7-1.2,1.1-2,1.3c-0.8,0.2-1.7,0-2.3-0.5c-0.7-0.5-1.1-1.2-1.3-2c-0.1-0.8,0-1.7,0.5-2.3 c0.5-0.7,1.2-1.1,2-1.3c0.2,0,0.4,0,0.6,0c0.6,0,1.3,0.2,1.8,0.6c0.7,0.5,1.1,1.2,1.3,2C19.9,58.2,19.7,59.1,19.3,59.8z" class="st2"/></g></svg>