<svg xmlns="http://www.w3.org/2000/svg" width="64" height="64" viewBox="0 0 64 49"><style>.st1{fill:#5aa9fa}</style><g id="icon_60px"><circle id="_x3C_red_circle_x3E_" cx="4.5" cy="34.5" r="2.5" fill="#fb511f"/><circle id="_x3C_circle_x3E_" class="st1" cx="14.5" cy="34.5" r="2.5"/><circle id="_x3C_circle_x3E__1_" class="st1" cx="9.5" cy="24.5" r="2.5"/><circle id="_x3C_circle_x3E__2_" class="st1" cx="19.5" cy="24.5" r="2.5"/><circle id="_x3C_circle_x3E__3_" class="st1" cx="19.5" cy="44.5" r="2.5"/><circle id="_x3C_circle_x3E__4_" class="st1" cx="24.5" cy="14.5" r="2.5"/><path id="_x3C_cloud_shape_x3E_" class="st1" d="M52 17c-.3-8.3-7-14.9-15.3-15-1.2 0-2.4.8-2.6 2-.3 1.6.9 3 2.4 3 1 0 2 .6 2.4 1.5.7 1.8-.6 3.5-2.3 3.5h-3.9c-1.2 0-2.3.7-2.5 1.9-.4 1.6.8 3.1 2.4 3.1h1.9c1.2 0 2.3.7 2.5 1.9.4 1.6-.8 3.1-2.4 3.1h-4.9c-1.2 0-2.3.7-2.5 1.9-.4 1.6.8 3.1 2.4 3.1h6.9c1.2 0 2.3.7 2.5 1.9.4 1.6-.8 3.1-2.4 3.1H24.7c-1.2 0-2.3.7-2.5 1.9-.4 1.6.8 3.1 2.4 3.1h9.9c1.2 0 2.3.7 2.5 1.9.4 1.6-.8 3.1-2.4 3.1h-4.9c-1.2 0-2.3.7-2.5 1.9-.4 1.6.8 3.1 2.4 3.1H47c8.4-.1 15-7 15-15.5 0-6.6-4.2-12.3-10-14.5z"/></g></svg>