<?xml version="1.0" encoding="utf-8"?>
<!-- Generator: Adobe Illustrator 22.0.0, SVG Export Plug-In . SVG Version: 6.00 Build 0)  -->
<svg version="1.1" xmlns="http://www.w3.org/2000/svg" xmlns:xlink="http://www.w3.org/1999/xlink" x="0px" y="0px"
	 viewBox="0 0 900 900" style="enable-background:new 0 0 900 900;" xml:space="preserve">
<style type="text/css">
	.st0{display:none;}
	.st1{display:inline;fill:#FFFFFF;}
	.st2{fill:#00B4A0;}
	.st3{fill:#3D70B2;}
	.st4{fill:#FFFFFF;}
	.st5{display:inline;}
	.st6{fill:none;stroke:#3D70B2;stroke-width:18;stroke-miterlimit:10;}
</style>
<g id="Guides">
</g>
<g id="Design">
	<g class="st0">
		<circle class="st1" cx="450" cy="450" r="450"/>
	</g>
	<g>
		<g>
			<g>
				<polygon class="st2" points="498.7,450 174.2,637.3 401.3,768.4 725.8,581.1 				"/>
			</g>
		</g>
		<g>
			<g>
				<path class="st3" d="M498.7,307.5l191.1,110.3L401.3,584.4L210.2,474L498.7,307.5 M498.7,286.7L174.2,474l227.1,131.1
					l324.4-187.3L498.7,286.7L498.7,286.7z"/>
			</g>
		</g>
		<g>
			<g>
				<polygon class="st2" points="498.7,123.4 174.2,310.7 401.3,441.9 725.8,254.5 				"/>
			</g>
			<g>
				<polygon class="st4" points="484.2,350.3 332.8,262.9 319.2,270.8 470.6,358.2 				"/>
				<polygon class="st4" points="435.9,378.2 284.5,290.8 270.9,298.7 422.3,386.1 				"/>
				<polygon class="st4" points="580.8,294.5 429.4,207.1 415.8,215 567.2,302.4 				"/>
				<polygon class="st4" points="629.1,266.6 477.7,179.2 464.1,187.1 615.5,274.5 				"/>
				<polygon class="st4" points="532.5,322.4 381.1,235 367.5,242.9 518.9,330.3 				"/>
			</g>
		</g>
	</g>
</g>
</svg>
