<svg xmlns="http://www.w3.org/2000/svg" xmlns:xlink="http://www.w3.org/1999/xlink" id="Layer_1" x="0" y="0" version="1.1" viewBox="0 0 900 900" xml:space="preserve" style="enable-background:new 0 0 900 900"><style type="text/css">.st0{display:none}.st1{display:inline;fill:#fff}.st5{fill:#00b4a0}.st6{fill:none;stroke:#00b4a0;stroke-width:19.5972;stroke-miterlimit:10}.st7{fill:#3d70b2}.st8,.st9{fill:none;stroke-width:19.5972;stroke-miterlimit:10}.st8{stroke:#00b4a0;stroke-dasharray:29.3328,29.3328}.st9{stroke:#3d70b2}</style><g id="Design"><g class="st0"><circle cx="450" cy="450" r="450" class="st1"/></g></g><g><polygon points="725 382.2 705.5 397.4 705.5 302.5 628.7 257.9 648.9 247.3 725 291.2" class="st7"/><polygon points="304.5 238.9 450 154.9 598 240.3 618.3 229.6 450 132.5 281.7 229.6" class="st5"/><polygon points="339.9 681.5 194.5 597.5 194.3 426.7 175 414.5 175 608.8 343.3 705.9" class="st5"/><polygon points="705.5 429.6 705.5 597.5 557.6 683.1 556.7 705.9 725 608.8 725 414.4" class="st5"/><g><line x1="195.4" x2="352.1" y1="303" y2="393.5" class="st6"/></g><g><g><line x1="195.4" x2="208.4" y1="597" y2="589.5" class="st6"/><line x1="233.8" x2="424.3" y1="574.8" y2="464.8" class="st8"/><line x1="437" x2="450" y1="457.5" y2="450" class="st6"/></g></g><g><g><line x1="704.6" x2="691.6" y1="597" y2="589.5" class="st6"/><line x1="666.2" x2="475.7" y1="574.8" y2="464.8" class="st8"/><line x1="463" x2="450" y1="457.5" y2="450" class="st6"/></g></g><g><line x1="450" x2="704.6" y1="450" y2="303" class="st9"/></g><polygon points="253.8 245.8 276.7 255 194.5 302.5 194.4 391.3 175 379.1 175 291.3" class="st7"/><g><polygon points="194.5 391.3 194.5 302.5 276.7 255 253.8 245.7 175 291.2 175 379.1" class="st7"/><g><line x1="450" x2="195.4" y1="450" y2="303" class="st9"/></g></g><g><polygon points="527 700.6 450 745.1 367.8 697.6 371.2 722 450 767.5 526.1 723.6" class="st7"/><g><line x1="450" x2="450" y1="450" y2="744" class="st9"/></g></g><g><line x1="450" x2="450" y1="450" y2="744" class="st9"/></g><polygon points="518.6 489.6 518.6 410.4 450 370.8 381.5 410.4 381.5 489.6 450 529.2" class="st7"/></g></svg>