<svg xmlns="http://www.w3.org/2000/svg" xmlns:xlink="http://www.w3.org/1999/xlink" width="55" height="55" version="1.1" viewBox="0 0 55 55"><title>ema_55x55</title><desc>Created with Sketch.</desc><defs><linearGradient id="linearGradient-1" x1="117.075%" x2="31.007%" y1="2.105%" y2="82.017%"><stop offset="0%" stop-color="#0062FF"/><stop offset="100%" stop-color="#A66EFA"/></linearGradient><linearGradient id="linearGradient-2" x1="50%" x2="50%" y1="100%" y2="0%"><stop offset="0%" stop-color="#F3F3F3" stop-opacity="0"/><stop offset="100%" stop-color="#F3F3F3"/></linearGradient><linearGradient id="linearGradient-3" x1="50%" x2="50%" y1="100%" y2="0%"><stop offset="0%" stop-color="#F3F3F3" stop-opacity="0"/><stop offset="100%" stop-color="#F3F3F3"/></linearGradient></defs><g id="ema_55x55" fill="none" fill-rule="evenodd" stroke="none" stroke-width="1"><g id="Group-Copy-2" transform="translate(2.000000, 0.000000)"><path id="Combined-Shape" fill="url(#linearGradient-1)" d="M17.4091771,42.4119999 C16.3372162,41.7703565 14.5746819,40.8516456 13.643727,40.1765657 C9.83098005,37.4117608 7.35570287,32.9913296 7.33557528,28.0053289 C7.28180507,24.9561099 8.19640221,21.9653089 9.95397554,19.4429637 L20.1195296,29.0568474 C20.6854054,29.7036846 21.4950568,30.100339 22.3649558,30.1568989 C23.2348548,30.213459 24.0913287,29.9251344 24.7402359,29.3572813 C25.3224789,28.7244114 25.6181098,27.8891049 25.5601166,27.040705 C25.5021232,26.1923051 25.0954173,25.4026638 24.4321889,24.8507733 L14.5746819,15.2368896 C17.0462534,13.6592879 19.9381208,12.8236149 22.8919534,12.8334186 C27.0308489,12.8326112 30.9959148,14.4564237 33.8934372,17.3388536 C36.7909597,20.2212835 38.377086,24.1197483 38.294308,28.1555458 C38.3016863,29.4708007 38.1465446,30.7821315 37.8322373,32.0611861 L48.151815,42.1257207 C51.1716173,45.0708902 51.1716173,49.8459534 48.1518149,52.7911228 C45.1320126,55.7362924 40.2359455,55.7362924 37.2161432,52.7911229 L27.7481081,43.0975283 L30.0111827,40.7981641 L39.3724728,50.3876521 C40.2155266,51.2509811 41.3845392,51.7396044 42.6069673,51.7396044 C43.8293954,51.7396044 44.9984079,51.2509811 45.8414618,50.3876521 C46.7558995,49.58555 47.2627691,48.4320839 47.2276737,47.2330964 C47.2313165,46.0401536 46.7297199,44.8986874 45.8414618,44.0785408 L35.5218842,34.0140062 L34.2896958,32.8122708 L34.7517665,31.1598845 C35.0560431,30.1345624 35.2115774,29.07273 35.2138371,28.0053289 C35.2076734,24.6951411 33.8820987,21.5169739 31.517272,19.1425299 C29.1546224,16.933607 26.010818,15.6964061 22.7379298,15.6875403 C21.6931973,15.678846 20.6535976,15.8309321 19.6574589,16.1381912 L26.4344949,22.7477363 C27.6932847,23.8759125 28.4348594,25.4498104 28.492778,27.1161799 C28.5506965,28.7825495 27.9201075,30.401812 26.742542,31.6105353 C25.5031887,32.7589978 23.8428929,33.3740021 22.1342963,33.3175151 C20.4256997,33.261028 18.8119179,32.5377809 17.6551528,31.3101015 L10.8781168,24.7005564 C10.5735741,25.7771017 10.4181704,26.8885638 10.4160462,28.0053289 C10.3537821,31.2403848 11.6964443,34.3503973 14.1126113,36.5676941 C14.8178799,37.2270742 18.5546947,39.6971853 19.3818312,40.1765657 L17.4091771,42.4119999 Z"/><g id="Group-4" fill="#061F80"><rect id="Rectangle" width="2.807" height="6.772" x="20.887" y="0"/><polygon id="Rectangle-Copy" points="31.706 2.677 34.489 2.634 34.383 9.468 31.6 9.511" transform="translate(33.044449, 6.072455) rotate(30.000000) translate(-33.044449, -6.072455)"/><polygon id="Rectangle-Copy-10" points="10.141 2.554 12.924 2.511 12.817 9.345 10.035 9.388" transform="translate(11.479345, 5.949321) scale(-1, 1) rotate(30.000000) translate(-11.479345, -5.949321)"/><polygon id="Rectangle-Copy-5" points="39.775 10.149 42.509 10.107 42.402 17.063 39.669 17.106" transform="translate(41.088542, 13.606343) rotate(60.000000) translate(-41.088542, -13.606343)"/><polygon id="Rectangle-Copy-15" points="2.515 10.149 5.248 10.107 5.142 17.063 2.408 17.106" transform="translate(3.828125, 13.606343) scale(-1, 1) rotate(60.000000) translate(-3.828125, -13.606343)"/></g><polygon id="Rectangle-Copy-11" fill="url(#linearGradient-2)" points="13.843 36.294 17.644 36.262 17.698 42.83 13.917 42.801" transform="translate(15.770176, 39.545752) rotate(131.000000) translate(-15.770176, -39.545752)"/><polygon id="Rectangle-Copy-12" fill="url(#linearGradient-3)" points="29.709 40.751 33.249 40.705 33.314 48.733 29.794 48.705" transform="translate(31.511869, 44.718830) rotate(-45.000000) translate(-31.511869, -44.718830)"/></g></g></svg>