<?xml version="1.0" encoding="utf-8"?>
<!-- Generator: Adobe Illustrator 19.1.0, SVG Export Plug-In . SVG Version: 6.00 Build 0)  -->
<svg version="1.1" id="Layer_1" xmlns="http://www.w3.org/2000/svg" xmlns:xlink="http://www.w3.org/1999/xlink" x="0px" y="0px"
	 width="30px" height="30px" viewBox="0 0 30 30" style="enable-background:new 0 0 30 30;" xml:space="preserve">
<style type="text/css">
	.st0{fill:#959494;}
</style>
<path class="st0" d="M10,18H4v5h6V18z"/>
<path class="st0" d="M10,11H4v5h6V11z M9,15H5v-3h4V15z"/>
<path class="st0" d="M18,11h-6v5h6V11z"/>
<path class="st0" d="M26,18h-6v5h6V18z"/>
<path class="st0" d="M26,11h-6v5h6V11z M25,15h-4v-3h4V15z"/>
<path class="st0" d="M18,18h-6v5h6V18z M17,22h-4v-3h4V22z"/>
<path class="st0" d="M0,4v23h30V4H0z M28,25H2V9h26V25z"/>
</svg>
