<svg xmlns="http://www.w3.org/2000/svg" id="Layer_1" data-name="Layer 1" viewBox="0 0 90.01 103"><defs><style>.cls-1{fill:#dfe3e6}.cls-2{fill:#3760b2}.cls-3{fill:#8897a2}.cls-4{fill:#41d6c3}.cls-5{fill:#5596e6}.cls-6{fill:#5a6872}.cls-7{fill:#152935}</style></defs><title>Artboard 1</title><polygon points="33.77 19.3 22.52 12.86 11.27 19.3 .02 25.74 .02 25.74 11.27 32.17 11.27 32.17 22.52 38.61 33.77 32.17 45.02 25.74 33.77 19.3" class="cls-1"/><polygon points="90.02 25.74 78.77 19.3 67.52 12.86 56.27 19.3 45.02 25.74 56.27 32.17 67.52 38.61 78.77 32.17 78.77 32.17 90.02 25.74 90.02 25.74" class="cls-2"/><polygon points="67.52 38.61 56.27 32.17 45.02 25.74 33.77 32.17 22.52 38.61 33.77 45.05 45.02 51.49 56.27 45.05 56.27 45.05 67.52 38.61 67.52 38.61" class="cls-3"/><polygon points="56.27 6.43 45.02 -.01 33.77 6.43 22.52 12.86 33.77 19.3 45.02 25.74 56.27 19.3 67.52 12.86 56.27 6.43" class="cls-4"/><polygon points="67.52 64.36 90.02 51.49 90.02 25.74 67.52 38.61 67.52 64.36" class="cls-5"/><polygon points="67.52 90.11 90.02 77.24 90.02 51.49 67.52 64.36 67.52 90.11" class="cls-4"/><polygon points="45.02 102.99 67.52 90.11 67.52 64.36 45.02 77.24 45.02 102.99" class="cls-6"/><polygon points="45.02 77.24 67.52 64.36 67.52 38.61 45.02 51.49 45.02 77.24" class="cls-1"/><polygon points="22.52 38.61 45.02 51.49 45.02 77.24 22.52 64.36 22.52 38.61" class="cls-6"/><polygon points="22.52 64.36 45.02 77.24 45.02 102.99 22.52 90.11 22.52 64.36" class="cls-7"/><polygon points=".02 51.49 22.52 64.36 22.52 90.11 .02 77.24 .02 51.49" class="cls-2"/><polygon points=".02 25.74 22.52 38.61 22.52 64.36 .02 51.49 .02 25.74" class="cls-3"/></svg>