<svg xmlns="http://www.w3.org/2000/svg" xmlns:xlink="http://www.w3.org/1999/xlink" id="Layer_1" width="30" height="30" x="0" style="enable-background:new 0 0 30 30" y="0" version="1.1" viewBox="0 0 30 30" xml:space="preserve"><style type="text/css">.st0{fill:#949494}.st1{fill:#959595}</style><path d="M20.5,11c-5.2,0-9.5,4.3-9.5,9.5s4.3,9.5,9.5,9.5s9.5-4.3,9.5-9.5S25.7,11,20.5,11z M21,17.3	c1,0,1.9-0.1,2.7-0.2C24,18,24.1,19,24.2,20H21V17.3z M21,16.3v-3c1,0.3,1.8,1.3,2.4,2.9C22.7,16.2,21.9,16.3,21,16.3z M20,13.3v3	c-0.9,0-1.7-0.1-2.4-0.2C18.2,14.6,19,13.5,20,13.3z M20,17.3V20h-3.2c0-1,0.2-2,0.4-2.9C18.1,17.2,19,17.3,20,17.3z M15.8,20h-3	c0.1-1.4,0.6-2.8,1.3-3.9c0.6,0.3,1.3,0.6,2.1,0.8C16,17.8,15.9,18.9,15.8,20z M15.8,21c0,1.1,0.2,2.2,0.4,3.1	c-0.8,0.2-1.5,0.4-2.1,0.8c-0.8-1.1-1.2-2.4-1.3-3.9H15.8z M16.8,21H20v2.7c-1,0-1.9,0.1-2.7,0.2C17,23,16.9,22,16.8,21z M20,24.7v3	c-1-0.3-1.8-1.3-2.4-2.9C18.3,24.8,19.1,24.7,20,24.7z M21,27.7v-3c0.9,0,1.7,0.1,2.4,0.2C22.8,26.4,22,27.5,21,27.7z M21,23.7V21	h3.2c0,1-0.2,2-0.4,2.9C22.9,23.8,22,23.7,21,23.7z M25.2,21h3c-0.1,1.4-0.6,2.8-1.3,3.9c-0.6-0.3-1.3-0.6-2.1-0.8	C25,23.2,25.1,22.1,25.2,21z M25.2,20c0-1.1-0.2-2.2-0.4-3.1c0.8-0.2,1.5-0.4,2.1-0.8c0.8,1.1,1.2,2.4,1.3,3.9H25.2z M26.2,15.3	c-0.5,0.2-1.1,0.4-1.8,0.6c-0.4-1.2-1-2.2-1.7-2.8C24.1,13.5,25.3,14.3,26.2,15.3z M18.3,13.1c-0.7,0.7-1.3,1.6-1.7,2.8	c-0.7-0.2-1.2-0.4-1.8-0.6C15.7,14.3,16.9,13.5,18.3,13.1z M14.8,25.7c0.5-0.2,1.1-0.4,1.8-0.6c0.4,1.2,1,2.2,1.7,2.8	C16.9,27.5,15.7,26.7,14.8,25.7z M22.7,27.9c0.7-0.7,1.3-1.6,1.7-2.8c0.7,0.2,1.2,0.4,1.8,0.6C25.3,26.7,24.1,27.5,22.7,27.9z" class="st0"/><rect width="12" height="2" x="4" y="3" class="st1"/><path d="M19.9,5.8L19.9,5.8L19.9,5.8c-0.1-0.2-0.1-0.3-0.2-0.5l-2.2-4.1C17.2,0.6,16.9,0,15.6,0H4.4	C3.2,0,2.7,0.5,2.5,1.2L0.3,5.3C0.2,5.4,0.2,5.6,0.1,5.7l0,0l0,0C0.1,6,0,6.2,0,6.5c0,1.2,0.9,2.2,2,2.4V19h7.6	c0.1-0.6,0.2-1.2,0.4-1.7V10H5v7H4V8.5c0.6-0.5,1-1.2,1-2C5,7.9,6.1,9,7.5,9S10,7.9,10,6.5C10,7.9,11.1,9,12.5,9S15,7.9,15,6.5	c0,0.8,0.4,1.5,1,2v2c0.6-0.3,1.3-0.5,2-0.7V8.9c1.1-0.2,2-1.2,2-2.4C20,6.2,19.9,6,19.9,5.8z M6,11h3v6H6V11z M17,6H3V2h14V6z" class="st1"/><path d="M12.5,13H12v-2h2v0.6c0.3-0.2,0.7-0.5,1-0.7v-1h-4v4h0.6C11.9,13.7,12.2,13.3,12.5,13z" class="st1"/></svg>