<svg xmlns="http://www.w3.org/2000/svg" xmlns:xlink="http://www.w3.org/1999/xlink" id="Layer_1" x="0" y="0" version="1.1" viewBox="0 0 212.09 205.95" xml:space="preserve" style="enable-background:new 0 0 212.09 205.95"><style type="text/css">.st0{fill:url(#SVGID_1_)}.st1{fill:url(#SVGID_2_)}.st2{fill:url(#SVGID_3_)}</style><linearGradient id="SVGID_1_" x1="20.286" x2="70.951" y1="172.488" y2="145.431" gradientUnits="userSpaceOnUse"><stop offset=".033" style="stop-color:#61a3d8"/><stop offset=".819" style="stop-color:#75c3ec"/></linearGradient><path d="M10.92,197.45c152.32,14.42,197.66-76.74,190.92-187.66c0,0-25.93,58.73-74.65,109.29	C78.12,170.01,10.92,197.45,10.92,197.45z" class="st0"/><linearGradient id="SVGID_2_" x1="47.225" x2="167.592" y1="132.675" y2="92.182" gradientUnits="userSpaceOnUse"><stop offset="0" style="stop-color:#8ed8f6"/><stop offset="1" style="stop-color:#cfe9f9"/></linearGradient><path d="M8.82,79.32c43.49,72.55,135.02,91.73,135.02,91.73s66.37-37.54,58-161.26c0,0-27.91,36.74-87.44,55.58	C46.03,87,8.82,79.32,8.82,79.32z" class="st1"/><linearGradient id="SVGID_3_" x1="93.876" x2="182.325" y1="116.998" y2="87.242" gradientUnits="userSpaceOnUse"><stop offset="0" style="stop-color:#416bb3"/><stop offset="1" style="stop-color:#4d83c4"/></linearGradient><path d="M90.38,151.28c28.97,14.53,52.76,19.67,53.34,19.8c9.45-6.56,15.31-11.97,22.1-20.19	c15.91-19.29,31.09-47.45,35.52-95.3c0.18-2.08,0.37-4.15,0.51-6.25c0.27-4.05,0.42-8.27,0.51-12.57c0.06-2.77,0.09-5.54,0.07-8.34	c-0.05-6.01-0.17-12.11-0.61-18.58c0,0-25.93,58.73-74.65,109.3C115.54,131.2,102.9,141.9,90.38,151.28z" class="st2"/></svg>