<svg id="Layer_1" data-name="Layer 1" xmlns="http://www.w3.org/2000/svg" viewBox="0 0 90.01 103"><defs><style>.cls-1{fill:#dfe3e6;}.cls-2{fill:#3760b2;}.cls-3{fill:#8897a2;}.cls-4{fill:#41d6c3;}.cls-5{fill:#5596e6;}.cls-6{fill:#5a6872;}.cls-7{fill:#152935;}</style></defs><title>Artboard 1</title><polygon class="cls-1" points="33.77 19.3 22.52 12.86 11.27 19.3 0.02 25.74 0.02 25.74 11.27 32.17 11.27 32.17 22.52 38.61 33.77 32.17 45.02 25.74 33.77 19.3"/><polygon class="cls-2" points="90.02 25.74 78.77 19.3 67.52 12.86 56.27 19.3 45.02 25.74 56.27 32.17 67.52 38.61 78.77 32.17 78.77 32.17 90.02 25.74 90.02 25.74"/><polygon class="cls-3" points="67.52 38.61 56.27 32.17 45.02 25.74 33.77 32.17 22.52 38.61 33.77 45.05 45.02 51.49 56.27 45.05 56.27 45.05 67.52 38.61 67.52 38.61"/><polygon class="cls-4" points="56.27 6.43 45.02 -0.01 33.77 6.43 22.52 12.86 33.77 19.3 45.02 25.74 56.27 19.3 67.52 12.86 56.27 6.43"/><polygon class="cls-5" points="67.52 64.36 90.02 51.49 90.02 25.74 67.52 38.61 67.52 64.36"/><polygon class="cls-4" points="67.52 90.11 90.02 77.24 90.02 51.49 67.52 64.36 67.52 90.11"/><polygon class="cls-6" points="45.02 102.99 67.52 90.11 67.52 64.36 45.02 77.24 45.02 102.99"/><polygon class="cls-1" points="45.02 77.24 67.52 64.36 67.52 38.61 45.02 51.49 45.02 77.24"/><polygon class="cls-6" points="22.52 38.61 45.02 51.49 45.02 77.24 22.52 64.36 22.52 38.61"/><polygon class="cls-7" points="22.52 64.36 45.02 77.24 45.02 102.99 22.52 90.11 22.52 64.36"/><polygon class="cls-2" points="0.02 51.49 22.52 64.36 22.52 90.11 0.02 77.24 0.02 51.49"/><polygon class="cls-3" points="0.02 25.74 22.52 38.61 22.52 64.36 0.02 51.49 0.02 25.74"/></svg>