<?xml version="1.0" encoding="UTF-8"?>
<svg width="256px" height="256px" viewBox="0 0 256 256" version="1.1" xmlns="http://www.w3.org/2000/svg" xmlns:xlink="http://www.w3.org/1999/xlink">
    <!-- Generator: Sketch 55.2 (78181) - https://sketchapp.com -->
    <title>32px Grid Copy 7</title>
    <desc>Created with Sketch.</desc>
    <defs>
        <linearGradient x1="88.260808%" y1="24.1558345%" x2="0%" y2="72.0753403%" id="linearGradient-1">
            <stop stop-color="#0062FF" offset="0%"></stop>
            <stop stop-color="#A66EFA" offset="100%"></stop>
        </linearGradient>
        <linearGradient x1="31.509963%" y1="15.3701114%" x2="55.1331417%" y2="80.0866407%" id="linearGradient-2">
            <stop stop-color="#F3F3F3" offset="0%"></stop>
            <stop stop-color="#F3F3F3" stop-opacity="0" offset="100%"></stop>
        </linearGradient>
        <linearGradient x1="10.7017022%" y1="15.3505627%" x2="72.6558296%" y2="50%" id="linearGradient-3">
            <stop stop-color="#F3F3F3" offset="0%"></stop>
            <stop stop-color="#F3F3F3" stop-opacity="0" offset="100%"></stop>
        </linearGradient>
    </defs>
    <g id="32px-Grid-Copy-7" stroke="none" stroke-width="1" fill="none" fill-rule="evenodd">
        <rect fill="#F3F3F3" x="0" y="0" width="256" height="256"></rect>
        <path d="M104,128 C117.254834,128 128,117.254834 128,104 C128,90.745166 117.254834,80 104,80 C90.745166,80 80,90.745166 80,104 C80,117.254834 90.745166,128 104,128 Z M104,112 C99.581722,112 96,108.418278 96,104 C96,99.581722 99.581722,96 104,96 C108.418278,96 112,99.581722 112,104 C112,108.418278 108.418278,112 104,112 Z" id="Oval" fill="#061F80" fill-rule="nonzero"></path>
        <path d="M152,80 C165.254834,80 176,69.254834 176,56 C176,42.745166 165.254834,32 152,32 C138.745166,32 128,42.745166 128,56 C128,69.254834 138.745166,80 152,80 Z M152,64 C147.581722,64 144,60.418278 144,56 C144,51.581722 147.581722,48 152,48 C156.418278,48 160,51.581722 160,56 C160,60.418278 156.418278,64 152,64 Z" id="Oval-Copy-2" fill="#061F80" fill-rule="nonzero"></path>
        <path d="M237.656854,226.343146 L226.343146,237.656854 L178.629854,189.943563 C164.838889,201.229078 147.210162,208 128,208 C83.81722,208 48,172.18278 48,128 C48,119.845601 49.2200279,111.976154 51.4875056,104.564238 C58.0826128,107.434927 59.3128364,107.434927 66.2702426,111.044173 C64.7902776,116.444476 64,122.129948 64,128 C64,163.346224 92.653776,192 128,192 C163.346224,192 192,163.346224 192,128 C192,114.324176 187.710538,101.650209 180.403622,91.2501085 C183.838918,86.3197126 185.870696,83.2834957 189.930662,77.3543855 C201.223918,91.1476785 208,108.78252 208,128 C208,147.210162 201.229078,164.838889 189.943563,178.629854 L237.656854,226.343146 Z" id="Path" fill="url(#linearGradient-1)"></path>
        <path d="M116.090143,93.4511374 L140.247836,69.2934437" id="Path-9" stroke="#061F80" stroke-width="16"></path>
        <rect id="Rectangle" stroke="#061F80" stroke-width="16" x="40" y="40" width="32" height="32"></rect>
        <path d="M68.2322643,68.2322643 L91.5113218,91.5113218" id="Path-10" stroke="#061F80" stroke-width="16"></path>
        <polygon id="Path-8" fill="url(#linearGradient-2)" points="180 91.553112 197.940678 144.767736 228.820817 109.167082 190.033934 77"></polygon>
        <polygon id="Path-8-Copy" fill="url(#linearGradient-3)" transform="translate(45.473209, 135.757661) rotate(78.000000) translate(-45.473209, -135.757661) " points="16 123.553112 41.8258774 162.515323 74.9464174 115.645111 26.033934 109"></polygon>
    </g>
</svg>