<svg xmlns="http://www.w3.org/2000/svg" xmlns:xlink="http://www.w3.org/1999/xlink" width="32" height="32" version="1.1" viewBox="0 0 32 32"><title>Artboard</title><desc>Created with Sketch.</desc><g id="Artboard" fill="none" fill-rule="evenodd" stroke="none" stroke-width="1"><g id="Group-6" transform="translate(2.000000, 3.000000)"><polygon id="Stroke-1" stroke="#3D70B2" stroke-linejoin="round" stroke-width="2" points="1 25 5 25 5 0 1 0"/><polygon id="Stroke-3" stroke="#3D70B2" stroke-width="2" points="0 26 28 26 28 25 0 25"/><polygon id="Stroke-4" stroke="#3D70B2" stroke-linejoin="round" stroke-width="2" points="5 12 10.556 7 10.556 12 18.333 7 18.333 12 25 7 25 25 5 25"/><path id="Fill-5" fill="#3D70B2" d="M17,24.6401 C17,24.8381 16.838,25.0001 16.64,25.0001 L11.36,25.0001 C11.162,25.0001 11,24.8381 11,24.6401 L11,19.3601 C11,19.1621 11.162,19.0001 11.36,19.0001 L16.64,19.0001 C16.838,19.0001 17,19.1621 17,19.3601 L17,24.6401 Z"/></g></g></svg>