<?xml version="1.0" encoding="utf-8"?>
<!-- Generator: Adobe Illustrator 23.0.3, SVG Export Plug-In . SVG Version: 6.00 Build 0)  -->
<svg version="1.1" id="Layer_1" xmlns="http://www.w3.org/2000/svg" xmlns:xlink="http://www.w3.org/1999/xlink" x="0px" y="0px"
	 viewBox="0 0 212.09 205.95" style="enable-background:new 0 0 212.09 205.95;" xml:space="preserve">
<style type="text/css">
	.st0{fill:url(#SVGID_1_);}
	.st1{fill:url(#SVGID_2_);}
	.st2{fill:url(#SVGID_3_);}
</style>
<linearGradient id="SVGID_1_" gradientUnits="userSpaceOnUse" x1="20.2862" y1="172.4875" x2="70.9514" y2="145.4314">
	<stop  offset="0.0326" style="stop-color:#61A3D8"/>
	<stop  offset="0.819" style="stop-color:#75C3EC"/>
</linearGradient>
<path class="st0" d="M10.92,197.45c152.32,14.42,197.66-76.74,190.92-187.66c0,0-25.93,58.73-74.65,109.29
	C78.12,170.01,10.92,197.45,10.92,197.45z"/>
<linearGradient id="SVGID_2_" gradientUnits="userSpaceOnUse" x1="47.2254" y1="132.6746" x2="167.5921" y2="92.1818">
	<stop  offset="0" style="stop-color:#8ED8F6"/>
	<stop  offset="1" style="stop-color:#CFE9F9"/>
</linearGradient>
<path class="st1" d="M8.82,79.32c43.49,72.55,135.02,91.73,135.02,91.73s66.37-37.54,58-161.26c0,0-27.91,36.74-87.44,55.58
	C46.03,87,8.82,79.32,8.82,79.32z"/>
<linearGradient id="SVGID_3_" gradientUnits="userSpaceOnUse" x1="93.8758" y1="116.9976" x2="182.3246" y2="87.2424">
	<stop  offset="0" style="stop-color:#416BB3"/>
	<stop  offset="1" style="stop-color:#4D83C4"/>
</linearGradient>
<path class="st2" d="M90.38,151.28c28.97,14.53,52.76,19.67,53.34,19.8c9.45-6.56,15.31-11.97,22.1-20.19
	c15.91-19.29,31.09-47.45,35.52-95.3c0.18-2.08,0.37-4.15,0.51-6.25c0.27-4.05,0.42-8.27,0.51-12.57c0.06-2.77,0.09-5.54,0.07-8.34
	c-0.05-6.01-0.17-12.11-0.61-18.58c0,0-25.93,58.73-74.65,109.3C115.54,131.2,102.9,141.9,90.38,151.28z"/>
</svg>
