<svg xmlns="http://www.w3.org/2000/svg" xmlns:xlink="http://www.w3.org/1999/xlink" id="Layer_1" width="30" height="30" x="0" style="enable-background:new 0 0 30 30" y="0" version="1.1" viewBox="0 0 30 30" xml:space="preserve"><style type="text/css">.st0{fill:#959494}</style><path d="M10,18H4v5h6V18z" class="st0"/><path d="M10,11H4v5h6V11z M9,15H5v-3h4V15z" class="st0"/><path d="M18,11h-6v5h6V11z" class="st0"/><path d="M26,18h-6v5h6V18z" class="st0"/><path d="M26,11h-6v5h6V11z M25,15h-4v-3h4V15z" class="st0"/><path d="M18,18h-6v5h6V18z M17,22h-4v-3h4V22z" class="st0"/><path d="M0,4v23h30V4H0z M28,25H2V9h26V25z" class="st0"/></svg>