<svg xmlns="http://www.w3.org/2000/svg" xmlns:xlink="http://www.w3.org/1999/xlink" id="Layer_1" x="0" y="0" version="1.1" viewBox="0 0 52 52" xml:space="preserve" style="enable-background:new 0 0 52 52"><style type="text/css">.st0{fill:#8c9ba5}</style><title>IBM charts default icon</title><desc>Created with Sketch.</desc><g id="Hi-Fi-Todd-_x28_admin_x29_"><g id="Catalog---All-Categories" transform="translate(-408.000000, -919.000000)"><g id="Group-8" transform="translate(409.000000, 920.000000)"><g id="bee_32" transform="translate(9.000000, 15.000000)"><path id="Shape" d="M11.8,7.5h8.3c-0.9-1.2-2.4-2-4.2-2S12.7,6.3,11.8,7.5z M11,9.5c0,0.2,0,0.3,0,0.5v1.5h10V10 c0-0.2,0-0.3,0-0.5H11z M11,15c0,0.2,0,0.3,0,0.5H21c0-0.2,0-0.3,0-0.5v-1.5H11V15z M16,19.5c1.7,0,3.3-0.8,4.2-2h-8.3 C12.7,18.7,14.3,19.5,16,19.5z M3.2,8.5c-0.9,0.4-1.6,1.1-2,2s-0.4,1.9,0,2.8c0.6,1.3,1.9,2.2,3.3,2.2h0c0.5,0,0.9-0.1,1.4-0.3 c0.9-0.4,1.6-1.1,2-2L11,5.5L3.2,8.5z M7,12.9c-0.4,1-1.4,1.6-2.4,1.6c-1.2,0-2.3-0.9-2.5-2.1S2.5,10,3.6,9.5l5.6-2.2L7,12.9z M30.7,10.5c-0.4-0.9-1.1-1.6-2-2l-7.8-3l3,7.8c0.6,1.3,1.9,2.2,3.3,2.2h0c1,0,1.9-0.4,2.5-1.1c0.3-0.3,0.6-0.7,0.8-1.2 C31.1,12.4,31.1,11.4,30.7,10.5L30.7,10.5z M29.8,12.9c-0.3,0.6-0.8,1.1-1.4,1.4c-0.3,0.1-0.7,0.2-1,0.2c-1,0-2-0.6-2.4-1.6 l-2.2-5.6l5.6,2.2c0.6,0.3,1.2,0.8,1.4,1.4C30.1,11.5,30.1,12.2,29.8,12.9L29.8,12.9z M13.5,4.5c0.7,0,1.4-0.4,1.8-1 c0.4-0.6,0.4-1.4,0-2s-1-1-1.8-1c-1.1,0-2,0.9-2,2S12.4,4.5,13.5,4.5z M13.5,1.5c0.6,0,1,0.4,1,1s-0.4,1-1,1s-1-0.4-1-1 S12.9,1.5,13.5,1.5z M18.5,4.5c0.7,0,1.4-0.4,1.8-1s0.4-1.4,0-2c-0.4-0.6-1-1-1.8-1c-1.1,0-2,0.9-2,2 C16.5,3.6,17.4,4.5,18.5,4.5z M18.5,1.5c0.6,0,1,0.4,1,1s-0.4,1-1,1s-1-0.4-1-1S17.9,1.5,18.5,1.5z" class="st0"/></g></g></g></g></svg>