<svg xmlns="http://www.w3.org/2000/svg" xmlns:xlink="http://www.w3.org/1999/xlink" width="239" height="47" version="1.1" viewBox="0 0 239 47"><title>ICP-Logo_Box</title><desc>Created with Sketch.</desc><g id="Platform-UI-Flow-Hi-Fi" fill="none" fill-rule="evenodd" stroke="none" stroke-width="1"><g id="Login-Copy-3" transform="translate(-116.000000, -108.000000)"><g id="ICP-Logo_Box" transform="translate(116.000000, 108.000000)"><rect id="Rectangle-Copy" width="239" height="47" x="0" y="0" fill="#3C6DF0"/><path id="Fill-1" fill="#FFF" d="M202.9825,24.858 L202.9825,25.019 L209.5415,25.019 L209.5415,24.766 C209.5415,22.672 208.2755,21.268 206.3885,21.268 C204.3865,21.268 202.9825,22.787 202.9825,24.858 L202.9825,24.858 Z M201.0495,25.94 C201.0495,22.165 203.1665,19.726 206.3885,19.726 C209.5645,19.726 211.5205,22.165 211.5205,25.525 L211.5205,26.4 L202.9825,26.4 L202.9825,26.952 C202.9825,29.001 204.2945,30.542 206.5035,30.542 C207.9995,30.542 209.1505,29.806 209.7715,28.494 L211.0835,29.438 C210.3235,31.049 208.6205,32.153 206.3885,32.153 C203.1665,32.153 201.0495,29.714 201.0495,25.94 L201.0495,25.94 Z M196.5615,31.877 C195.2955,31.877 194.6055,31.072 194.6055,29.921 L194.6055,21.613 L192.6495,21.613 L192.6495,20.002 L193.7535,20.002 C194.5365,20.002 194.7895,19.726 194.7895,18.92 L194.7895,16.711 L196.4465,16.711 L196.4465,20.002 L199.0475,20.002 L199.0475,21.613 L196.4465,21.613 L196.4465,30.266 L198.8625,30.266 L198.8625,31.877 L196.5615,31.877 Z M188.1155,28.425 L188.1155,26.469 L185.6765,26.469 C183.5815,26.469 182.6385,27.113 182.6385,28.264 L182.6385,28.747 C182.6385,29.921 183.5585,30.588 184.9855,30.588 C186.8035,30.588 188.1155,29.645 188.1155,28.425 L188.1155,28.425 Z M190.2785,31.877 C188.9205,31.877 188.3685,31.049 188.2305,29.944 L188.1155,29.944 C187.6095,31.394 186.3435,32.153 184.6865,32.153 C182.1775,32.153 180.7045,30.773 180.7045,28.563 C180.7045,26.331 182.3155,25.088 185.7675,25.088 L188.1155,25.088 L188.1155,23.914 C188.1155,22.234 187.1945,21.314 185.3075,21.314 C183.8805,21.314 182.9375,22.004 182.2925,23.086 L181.1885,22.05 C181.8325,20.785 183.2595,19.726 185.3995,19.726 C188.2535,19.726 189.9565,21.222 189.9565,23.73 L189.9565,30.266 L191.3145,30.266 L191.3145,31.877 L190.2785,31.877 Z M173.1555,31.877 L168.9905,20.002 L170.8315,20.002 L172.9025,25.894 L174.1915,29.944 L174.3065,29.944 L175.5955,25.894 L177.7125,20.002 L179.4845,20.002 L175.2965,31.877 L173.1555,31.877 Z M164.7795,31.877 L166.6205,31.877 L166.6205,20.002 L164.7795,20.002 L164.7795,31.877 Z M164.5715,16.182 L164.5715,15.883 C164.5715,15.261 164.9175,14.847 165.6995,14.847 C166.4825,14.847 166.8275,15.261 166.8275,15.883 L166.8275,16.182 C166.8275,16.803 166.4825,17.217 165.6995,17.217 C164.9175,17.217 164.5715,16.803 164.5715,16.182 L164.5715,16.182 Z M156.3335,31.877 L156.3335,20.002 L158.1745,20.002 L158.1745,22.188 L158.2895,22.188 C158.7035,21.061 159.7855,20.002 161.7185,20.002 L162.4315,20.002 L162.4315,21.843 L161.3505,21.843 C159.3715,21.843 158.1745,22.695 158.1745,23.822 L158.1745,31.877 L156.3335,31.877 Z M144.7345,23.316 L149.1995,23.316 C150.7175,23.316 151.6155,22.488 151.6155,21.015 L151.6155,19.818 C151.6155,18.345 150.7175,17.517 149.1995,17.517 L144.7345,17.517 L144.7345,23.316 Z M142.8015,31.877 L142.8015,15.814 L149.1995,15.814 C152.0755,15.814 153.6865,17.586 153.6865,20.416 C153.6865,23.247 152.0755,25.019 149.1995,25.019 L144.7345,25.019 L144.7345,31.877 L142.8015,31.877 Z M131.1565,27.62 L131.1565,24.052 C131.1565,22.948 130.2125,22.28 128.9245,22.28 C127.6355,22.28 126.6915,23.27 126.6915,24.789 L126.6915,26.883 C126.6915,28.402 127.6355,29.392 128.9245,29.392 C130.2125,29.392 131.1565,28.724 131.1565,27.62 L131.1565,27.62 Z M131.1565,29.852 L131.0415,29.852 C130.6965,31.164 129.3615,32.153 127.7965,32.153 C124.7355,32.153 123.1475,29.921 123.1475,25.825 C123.1475,21.728 124.7355,19.519 127.7965,19.519 C129.3615,19.519 130.6965,20.485 131.0415,21.82 L131.1565,21.82 L131.1565,14.847 L134.5625,14.847 L134.5625,31.877 L131.1565,31.877 L131.1565,29.852 Z M117.1645,29.852 L117.0495,29.852 C116.6345,31.072 115.6455,32.153 113.6665,32.153 C111.2035,32.153 109.8915,30.427 109.8915,27.389 L109.8915,19.795 L113.2975,19.795 L113.2975,27.09 C113.2975,28.563 113.7815,29.392 115.0235,29.392 C116.0825,29.392 117.1645,28.793 117.1645,27.643 L117.1645,19.795 L120.5705,19.795 L120.5705,31.877 L117.1645,31.877 L117.1645,29.852 Z M104.0695,27.067 L104.0695,24.605 C104.0695,23.086 103.2865,22.211 101.9525,22.211 C100.6175,22.211 99.8345,23.086 99.8345,24.605 L99.8345,27.067 C99.8345,28.586 100.6175,29.461 101.9525,29.461 C103.2865,29.461 104.0695,28.586 104.0695,27.067 L104.0695,27.067 Z M96.2905,25.825 C96.2905,21.935 98.4075,19.519 101.9525,19.519 C105.4965,19.519 107.6135,21.935 107.6135,25.825 C107.6135,29.714 105.4965,32.153 101.9525,32.153 C98.4075,32.153 96.2905,29.714 96.2905,25.825 L96.2905,25.825 Z M93.4605,31.877 C91.1355,31.877 90.0765,30.703 90.0765,28.563 L90.0765,14.847 L93.4835,14.847 L93.4835,29.231 L95.0015,29.231 L95.0015,31.877 L93.4605,31.877 Z M74.6575,23.96 C74.6575,18.529 77.4425,15.537 81.7695,15.537 C84.7145,15.537 86.6025,16.734 87.7755,19.312 L84.7615,20.877 C84.3465,19.542 83.4955,18.644 81.7695,18.644 C79.7205,18.644 78.3635,20.025 78.3635,22.557 L78.3635,25.134 C78.3635,27.666 79.7205,29.046 81.7695,29.046 C83.4955,29.046 84.4845,27.965 84.9685,26.653 L87.8215,28.31 C86.6255,30.75 84.7145,32.153 81.7695,32.153 C77.4425,32.153 74.6575,29.392 74.6575,23.96 L74.6575,23.96 Z M64.9695,18.345 L64.8545,18.345 L63.4965,21.038 L59.6535,28.034 L55.8325,21.038 L54.4745,18.368 L54.3595,18.368 L54.3595,31.877 L52.4725,31.877 L52.4725,15.814 L55.0045,15.814 L59.6075,24.467 L59.6995,24.467 L64.3245,15.814 L66.8565,15.814 L66.8565,31.877 L64.9695,31.877 L64.9695,18.345 Z M39.3775,30.174 L44.1415,30.174 C45.7985,30.174 46.8115,29.3 46.8115,27.689 L46.8115,26.906 C46.8115,25.295 45.7985,24.421 44.1415,24.421 L39.3775,24.421 L39.3775,30.174 Z M39.3775,22.764 L43.8195,22.764 C45.3385,22.764 46.2585,21.958 46.2585,20.531 L46.2585,19.749 C46.2585,18.322 45.3385,17.517 43.8195,17.517 L39.3775,17.517 L39.3775,22.764 Z M37.4445,15.814 L44.0495,15.814 C46.6965,15.814 48.3305,17.447 48.3305,19.956 C48.3305,22.349 46.7885,23.201 45.7295,23.362 L45.7295,23.5 C46.8805,23.569 48.8825,24.559 48.8825,27.228 C48.8825,29.875 47.1105,31.877 44.7395,31.877 L37.4445,31.877 L37.4445,15.814 Z M27.4795,31.877 L27.4795,30.266 L29.7345,30.266 L29.7345,17.424 L27.4795,17.424 L27.4795,15.814 L33.9235,15.814 L33.9235,17.424 L31.6685,17.424 L31.6685,30.266 L33.9235,30.266 L33.9235,31.877 L27.4795,31.877 Z"/></g></g></g></svg>