<svg xmlns="http://www.w3.org/2000/svg" xmlns:xlink="http://www.w3.org/1999/xlink" id="Layer_1" x="0" y="0" version="1.1" viewBox="0 0 64 64" xml:space="preserve" style="enable-background:new 0 0 64 64"><style type="text/css">.st0{fill:#0071ba}.st0,.st1{fill-rule:evenodd;clip-rule:evenodd}.st2{fill:#fff}</style><path d="M33,11.3c12.2,0,22.2,9.9,22.2,22.2S45.2,55.6,33,55.6s-22.2-9.9-22.2-22.2S20.7,11.3,33,11.3z" class="st0"/><path d="M33,11.3c12.2,0,22.2,9.9,22.2,22.2S45.2,55.6,33,55.6s-22.2-9.9-22.2-22.2S20.8,11.3,33,11.3z M33,58.1	c13.6,0,24.6-11,24.6-24.6S46.6,8.9,33,8.9S8.4,19.9,8.4,33.5S19.4,58.1,33,58.1z" class="st1"/><g><rect width="28.5" height="14.6" x="34.5" y="8" transform="matrix(0.7071 -0.7071 0.7071 0.7071 3.4747 38.937)"/><rect width="4.9" height="4.9" x="36.5" y="17.7" class="st2" transform="matrix(0.7071 -0.7071 0.7071 0.7071 -2.8583 33.4632)"/><rect width="4.9" height="4.9" x="41.4" y="22.6" class="st2" transform="matrix(0.7071 -0.7071 0.7071 0.7071 -4.8868 38.3603)"/><rect width="4.9" height="4.9" x="41.4" y="12.8" class="st2" transform="matrix(0.7071 -0.7071 0.7071 0.7071 2.0755 35.4764)"/><rect width="4.9" height="4.9" x="46.3" y="17.7" class="st2" transform="matrix(0.7071 -0.7071 0.7071 0.7071 3.631676e-02 40.3995)"/><rect width="4.9" height="4.9" x="51.2" y="12.8" class="st2" transform="matrix(0.7071 -0.7071 0.7071 0.7071 4.9594 42.4387)"/><rect width="4.9" height="4.9" x="46.3" y="7.9" class="st2" transform="matrix(0.7071 -0.7071 0.7071 0.7071 6.9986 37.5156)"/><rect width="4.9" height="4.9" x="51.2" y="3" class="st2" transform="matrix(0.7071 -0.7071 0.7071 0.7071 11.9217 39.5549)"/><rect width="4.9" height="4.9" x="56.2" y="7.9" class="st2" transform="matrix(0.7071 -0.7071 0.7071 0.7071 9.8825 44.4779)"/></g><g><rect width="28.5" height="14.6" x="1" y="41.4" transform="matrix(0.7071 -0.7071 0.7071 0.7071 -30.0022 25.0704)"/><rect width="4.9" height="4.9" x="3" y="51.2" class="st2" transform="matrix(0.7071 -0.7071 0.7071 0.7071 -36.3352 19.5966)"/><rect width="4.9" height="4.9" x="7.9" y="56.1" class="st2" transform="matrix(0.7071 -0.7071 0.7071 0.7071 -38.3637 24.4937)"/><rect width="4.9" height="4.9" x="7.9" y="46.3" class="st2" transform="matrix(0.7071 -0.7071 0.7071 0.7071 -31.4014 21.6098)"/><rect width="4.9" height="4.9" x="12.8" y="51.2" class="st2" transform="matrix(0.7071 -0.7071 0.7071 0.7071 -33.4406 26.5329)"/><rect width="4.9" height="4.9" x="17.8" y="46.3" class="st2" transform="matrix(0.7071 -0.7071 0.7071 0.7071 -28.5175 28.5721)"/><rect width="4.9" height="4.9" x="12.8" y="41.4" class="st2" transform="matrix(0.7071 -0.7071 0.7071 0.7071 -26.4783 23.6491)"/><rect width="4.9" height="4.9" x="17.8" y="36.4" class="st2" transform="matrix(0.7071 -0.7071 0.7071 0.7071 -21.5552 25.6883)"/><rect width="4.9" height="4.9" x="22.7" y="41.4" class="st2" transform="matrix(0.7071 -0.7071 0.7071 0.7071 -23.5945 30.6113)"/></g><g><path d="M46.3,38.9c1.8,1.8,0,4.9-1,6c-2.9,2.9-5.9,2.9-6.8,1.9c-6.7-6.7-13.4-13.3-20-20c0,0-2.2-2.7,1.5-6.4 c3.7-3.7,6.5-1.5,6.5-1.5C33,25.5,39.6,32.2,46.3,38.9z"/><path d="M43.3,37.9c-0.7,0.1-2.1,0.4-3.5,1.5c-1.9,1.6-2.3,3.8-2.4,4.4C31.7,38,25.9,32.3,20.2,26.5c0,0-1.6-2,1.1-4.7 c2.7-2.7,4.7-1.1,4.7-1.1C31.8,26.4,37.5,32.2,43.3,37.9z" class="st2"/><path d="M40.4,40.9c2-2,3.9-2,4.7-1.2c1.2,1.2,0.2,3.2-0.7,4.2c-2,2-3.9,3-5.2,1.7C38.2,44.6,38.4,42.8,40.4,40.9z" class="st2"/><path d="M41.4,41.9" class="st2"/></g></svg>