<?xml version="1.0" encoding="UTF-8"?>
<svg width="250px" height="250px" viewBox="0 0 250 250" version="1.1" xmlns="http://www.w3.org/2000/svg" xmlns:xlink="http://www.w3.org/1999/xlink">
    <!-- Generator: Sketch 51.2 (57519) - http://www.bohemiancoding.com/sketch -->
    <title>aspera</title>
    <desc>Created with Sketch.</desc>
    <defs></defs>
    <g id="Page-1" stroke="none" stroke-width="1" fill="none" fill-rule="evenodd">
        <g id="IBM-Aspera" stroke="#7863EC">
            <g id="aspera">
                <circle id="Background" stroke-width="6" fill="#FFFFFF" cx="125" cy="125" r="122"></circle>
                <path d="M190.756737,118.00886 C169.702104,103.731638 144.273879,95.3873546 116.890782,95.3873546 C89.6242548,95.3873546 64.2959909,103.660747 43.2939529,117.826849 L190.756737,118.00886 Z" id="Oval-6-Copy-5" stroke-width="7" fill="#FFFFFF" stroke-linejoin="round" transform="translate(117.025345, 106.698107) rotate(-45.000000) translate(-117.025345, -106.698107) "></path>
                <path d="M96.6526319,110.326321 C92.5653825,109.944708 88.4237729,109.74959 84.2364518,109.74959 C78.2775568,109.74959 72.4112349,110.144734 66.662411,110.910173 L41.7125209,59.9715716 L46.6511339,59.9715716 L96.6526319,110.326321 Z" id="Oval-6-Copy-7" stroke-width="7" fill="#E9E8FE" stroke-linejoin="round" transform="translate(69.182576, 85.440872) rotate(-45.000000) translate(-69.182576, -85.440872) "></path>
                <path d="M213.418368,140.67049 C192.363735,126.393269 166.93551,118.048985 139.552413,118.048985 C112.285885,118.048985 86.9576215,126.322377 65.9555835,140.48848 L213.418368,140.67049 Z" id="Oval-6-Copy-5" stroke-width="7" fill="#E9E8FE" stroke-linejoin="round" transform="translate(139.686976, 129.359738) scale(1, -1) rotate(45.000000) translate(-139.686976, -129.359738) "></path>
                <path d="M191.412886,200.086331 C187.325636,199.704718 183.184027,199.5096 178.996706,199.5096 C173.037811,199.5096 167.171489,199.904744 161.422665,200.670183 L136.472775,149.731581 L141.411388,149.731581 L191.412886,200.086331 Z" id="Oval-6-Copy-7" stroke-width="7" fill="#FFFFFF" stroke-linejoin="round" transform="translate(163.942830, 175.200882) scale(1, -1) rotate(45.000000) translate(-163.942830, -175.200882) "></path>
            </g>
        </g>
    </g>
</svg>